<svg width="100%" viewBox="0 0 949 702" fill="none" xmlns="http://www.w3.org/2000/svg">
<g filter="url(#filter0_d_103_45)">
<path fill-rule="evenodd" clip-rule="evenodd" d="M443 133C310.452 133 203 240.452 203 373C203 505.548 210.452 673 403 673C559.867 673 623.331 555.612 661.247 472.981L661.677 472.989L663 473C707.183 473 743 437.183 743 393C743 353.135 713.841 320.08 675.688 314.001C649.401 209.979 555.19 133 443 133ZM679.141 378.545L670.859 409.455Z" fill="white"/>
<path d="M679.141 378.545L670.859 409.455M443 133C310.452 133 203 240.452 203 373C203 505.548 210.452 673 403 673C559.867 673 623.331 555.612 661.247 472.981L661.677 472.989L663 473C707.183 473 743 437.183 743 393C743 353.135 713.841 320.08 675.688 314.001C649.401 209.979 555.19 133 443 133Z" stroke="#1E293B" stroke-width="24" stroke-linecap="round" stroke-linejoin="round"/>
<path d="M344 448.381C311.151 458.812 290.37 451.576 281.655 426.674C268.582 389.321 337.967 360.393 314.839 333" stroke="#1E293B" stroke-width="16" stroke-linecap="round" stroke-linejoin="round"/>
<path d="M426 513C399.87 527.667 371.87 535 342 535C312.13 535 292.13 527.667 282 513" stroke="#1E293B" stroke-width="16" stroke-linecap="round" stroke-linejoin="round"/>
<path d="M239.5 294C239.5 306.979 250.021 317.5 263 317.5C275.979 317.5 286.5 306.979 286.5 294C286.5 281.021 275.979 270.5 263 270.5C250.021 270.5 239.5 281.021 239.5 294Z" fill="#1E293B" stroke="#1E293B"/>
<path d="M313.465 285.334C290.807 275.73 273.674 270.522 262.066 269.71C250.458 268.899 235.668 271.874 217.698 278.637" stroke="#1E293B" stroke-width="12" stroke-linecap="round" stroke-linejoin="round"/>
<path d="M432.5 294C432.5 306.979 421.979 317.5 409 317.5C396.021 317.5 385.5 306.979 385.5 294C385.5 281.021 396.021 270.5 409 270.5C421.979 270.5 432.5 281.021 432.5 294Z" fill="#1E293B" stroke="#1E293B"/>
<path d="M358.535 285.334C381.193 275.73 398.326 270.522 409.934 269.71C421.543 268.899 436.332 271.874 454.302 278.637" stroke="#1E293B" stroke-width="12" stroke-linecap="round" stroke-linejoin="round"/>
<path fill-rule="evenodd" clip-rule="evenodd" d="M405 239.719C384.426 242.796 369.426 248.965 360 258.226C375 252.618 390 249.814 405 249.814C420 249.814 438.333 252.618 460 258.226L450 244.766C440.574 238.324 425.574 236.641 405 239.719ZM267 239.719C246.426 236.641 231.426 238.324 222 244.766L212 258.226C233.667 252.618 252 249.814 267 249.814C282 249.814 297 252.618 312 258.226C302.574 248.965 287.574 242.796 267 239.719Z" fill="#1E293B" stroke="#1E293B" stroke-width="16" stroke-linecap="round" stroke-linejoin="round"/>
<path fill-rule="evenodd" clip-rule="evenodd" d="M530 19C373.515 -30.117 252 78 248 78C245.333 78 245.667 68 243 64C243 64 211 106 215 150C219 194 222.784 199.551 238 224C257.184 187.899 319.484 159.849 404.902 159.849C445.18 159.849 478.295 162.638 531 176C531 176 545.457 187.177 550 192C559.58 202.172 562.898 209.977 567 215C567 215 566.646 191.736 565.231 185.439C575.555 188.309 586.106 191.421 596.881 194.774C596.139 203.966 595.844 236.708 588 253L604 376L606.876 373.455C629.068 353.757 643.312 339.779 649.609 331.52L650 331C656.339 322.473 669.006 316.473 688 313L688.931 309.564C697.486 278.212 705.055 256.053 708.119 234.742C720.193 239.592 732.487 244.679 745 250C705.99 112.746 634.323 51.746 530 19Z" fill="#1E293B" stroke="#1E293B" stroke-width="12" stroke-linecap="round" stroke-linejoin="round"/>
</g>
<g filter="url(#filter1_d_103_45)">
<rect x="621" y="260" width="324" height="106" rx="50" fill="#1E293B"/>
<rect x="626" y="265" width="314" height="96" rx="45" stroke="white" stroke-width="10"/>
</g>
<g filter="url(#filter2_d_103_45)">
<rect x="77" y="588" width="324" height="106" rx="50" fill="#1E293B"/>
<rect x="82" y="593" width="314" height="96" rx="45" stroke="white" stroke-width="10"/>
</g>
<g filter="url(#filter3_d_103_45)">
<rect x="4" y="38" width="324" height="106" rx="50" fill="#1E293B"/>
<rect x="9" y="43" width="314" height="96" rx="45" stroke="white" stroke-width="10"/>
</g>
<path d="M81.4825 104.48C79.7225 104.48 77.9758 104.16 76.2425 103.52C74.5358 102.88 72.9758 101.947 71.5625 100.72L74.9625 96.68C75.9492 97.48 77.0292 98.1333 78.2025 98.64C79.4025 99.1467 80.6292 99.4 81.8825 99.4C83.1358 99.4 84.0558 99.1867 84.6425 98.76C85.2558 98.3333 85.5625 97.7867 85.5625 97.12C85.5625 96.5067 85.4025 96.0267 85.0825 95.68C84.7625 95.3067 84.2958 94.9867 83.6825 94.72C83.0692 94.4267 82.3492 94.1067 81.5225 93.76L78.1625 92.32C77.2025 91.9467 76.2958 91.4533 75.4425 90.84C74.5892 90.2 73.8958 89.4267 73.3625 88.52C72.8558 87.5867 72.6025 86.48 72.6025 85.2C72.6025 83.76 73.0025 82.4667 73.8025 81.32C74.6292 80.1467 75.7492 79.2133 77.1625 78.52C78.6025 77.8 80.2692 77.44 82.1625 77.44C83.7358 77.44 85.2825 77.7333 86.8025 78.32C88.3225 78.9067 89.6692 79.76 90.8425 80.88L87.8425 84.6C86.9358 83.9333 86.0292 83.4267 85.1225 83.08C84.2158 82.7067 83.1225 82.52 81.8425 82.52C80.8825 82.52 80.0958 82.72 79.4825 83.12C78.8692 83.52 78.5625 84.1067 78.5625 84.88C78.5625 85.3867 78.7492 85.8133 79.1225 86.16C79.4958 86.5067 80.0025 86.8133 80.6425 87.08C81.2825 87.3467 82.0158 87.64 82.8425 87.96L86.0025 89.32C87.1758 89.7467 88.1758 90.28 89.0025 90.92C89.8292 91.5333 90.4692 92.2933 90.9225 93.2C91.3758 94.1067 91.6025 95.1733 91.6025 96.4C91.6025 97.84 91.2025 99.1733 90.4025 100.4C89.6292 101.627 88.4825 102.613 86.9625 103.36C85.4692 104.107 83.6425 104.48 81.4825 104.48ZM105.547 104.48C103.814 104.48 102.174 104.08 100.627 103.28C99.0802 102.453 97.8269 101.267 96.8669 99.72C95.9069 98.1467 95.4269 96.2667 95.4269 94.08C95.4269 91.8933 95.9069 90.0267 96.8669 88.48C97.8269 86.9067 99.0802 85.72 100.627 84.92C102.174 84.0933 103.814 83.68 105.547 83.68C107.28 83.68 108.92 84.0933 110.467 84.92C112.014 85.72 113.267 86.9067 114.227 88.48C115.187 90.0267 115.667 91.8933 115.667 94.08C115.667 96.2667 115.187 98.1467 114.227 99.72C113.267 101.267 112.014 102.453 110.467 103.28C108.92 104.08 107.28 104.48 105.547 104.48ZM105.547 99.72C106.454 99.72 107.2 99.4933 107.787 99.04C108.4 98.5867 108.854 97.9333 109.147 97.08C109.467 96.2267 109.627 95.2267 109.627 94.08C109.627 92.9333 109.467 91.9333 109.147 91.08C108.854 90.2267 108.4 89.5733 107.787 89.12C107.2 88.6667 106.454 88.44 105.547 88.44C104.64 88.44 103.88 88.6667 103.267 89.12C102.68 89.5733 102.227 90.2267 101.907 91.08C101.614 91.9333 101.467 92.9333 101.467 94.08C101.467 95.2267 101.614 96.2267 101.907 97.08C102.227 97.9333 102.68 98.5867 103.267 99.04C103.88 99.4933 104.64 99.72 105.547 99.72ZM126.051 104V83.64C126.051 82.12 126.358 80.7467 126.971 79.52C127.611 78.2667 128.571 77.28 129.851 76.56C131.158 75.84 132.851 75.48 134.931 75.48C136.078 75.48 137.158 75.6 138.171 75.84C139.185 76.0533 140.105 76.2933 140.931 76.56L139.811 80.88C139.171 80.64 138.505 80.4533 137.811 80.32C137.145 80.1867 136.425 80.12 135.651 80.12C134.398 80.12 133.465 80.4 132.851 80.96C132.238 81.52 131.931 82.4 131.931 83.6V104H126.051ZM120.811 88.76V84.4L126.251 84.16H138.771V88.76H120.811ZM157.036 104.48C154.929 104.48 153.249 104.12 151.996 103.4C150.769 102.653 149.876 101.627 149.316 100.32C148.756 99.0133 148.476 97.4933 148.476 95.76V88.76H143.516V84.4L148.756 84.16L149.516 78.08H154.356V84.16H162.756V88.76H154.356V95.72C154.356 96.7067 154.502 97.5067 154.796 98.12C155.089 98.7333 155.542 99.1867 156.156 99.48C156.769 99.7467 157.556 99.88 158.516 99.88C159.289 99.88 159.996 99.8133 160.636 99.68C161.276 99.5467 161.889 99.3733 162.476 99.16L163.516 103.4C162.636 103.667 161.662 103.907 160.596 104.12C159.556 104.36 158.369 104.48 157.036 104.48ZM168.9 104L165.66 84.16H171.34L172.58 93.36C172.713 94.32 172.82 95.2933 172.9 96.28C173.007 97.24 173.113 98.2267 173.22 99.24H173.34C173.473 98.2267 173.607 97.2267 173.74 96.24C173.9 95.2533 174.073 94.2933 174.26 93.36L175.5 86.8H179.78L181.06 93.36C181.247 94.32 181.42 95.2933 181.58 96.28C181.767 97.24 181.927 98.2267 182.06 99.24H182.22C182.353 98.2267 182.447 97.24 182.5 96.28C182.58 95.2933 182.673 94.32 182.78 93.36L183.9 84.16H189.34L186.3 104H179.38L178.3 97.56C178.193 96.68 178.073 95.76 177.94 94.8C177.833 93.84 177.713 92.8 177.58 91.68H177.42C177.34 92.5067 177.247 93.3867 177.14 94.32C177.033 95.2267 176.9 96.3067 176.74 97.56L175.7 104H168.9ZM198.444 104.48C197.111 104.48 195.951 104.213 194.964 103.68C194.004 103.147 193.258 102.427 192.724 101.52C192.191 100.613 191.924 99.6 191.924 98.48C191.924 96.2667 192.924 94.5733 194.924 93.4C196.951 92.2267 200.311 91.5067 205.004 91.24C204.924 90.6267 204.724 90.1067 204.404 89.68C204.084 89.2533 203.618 88.9333 203.004 88.72C202.418 88.48 201.671 88.36 200.764 88.36C200.124 88.36 199.484 88.44 198.844 88.6C198.204 88.7333 197.538 88.9467 196.844 89.24C196.178 89.5067 195.471 89.8267 194.724 90.2L192.644 86.36C193.551 85.8267 194.498 85.36 195.484 84.96C196.498 84.56 197.538 84.2533 198.604 84.04C199.698 83.8 200.804 83.68 201.924 83.68C203.791 83.68 205.391 84.0133 206.724 84.68C208.058 85.32 209.084 86.3067 209.804 87.64C210.524 88.9467 210.884 90.6133 210.884 92.64V104H206.084L205.644 101.76H205.484C204.498 102.507 203.404 103.147 202.204 103.68C201.004 104.213 199.751 104.48 198.444 104.48ZM200.324 99.92C201.204 99.92 202.031 99.7467 202.804 99.4C203.578 99.0267 204.311 98.5733 205.004 98.04V94.76C203.058 94.8667 201.538 95.0667 200.444 95.36C199.378 95.6533 198.631 96.0267 198.204 96.48C197.778 96.9333 197.564 97.4533 197.564 98.04C197.564 98.44 197.671 98.7867 197.884 99.08C198.124 99.3733 198.444 99.5867 198.844 99.72C199.271 99.8533 199.764 99.92 200.324 99.92ZM218.109 104V84.16H222.909L223.389 88.48H223.509C224.495 86.8533 225.682 85.6533 227.069 84.88C228.482 84.08 229.975 83.68 231.549 83.68C232.429 83.68 233.135 83.7467 233.669 83.88C234.229 84.0133 234.802 84.2133 235.389 84.48L234.189 89.4C233.575 89.2133 233.015 89.08 232.509 89C232.029 88.8933 231.415 88.84 230.669 88.84C229.442 88.84 228.229 89.2 227.029 89.92C225.855 90.64 224.842 91.8933 223.989 93.68V104H218.109ZM250.653 104.48C248.6 104.48 246.733 104.08 245.053 103.28C243.4 102.453 242.08 101.267 241.093 99.72C240.133 98.1467 239.653 96.2667 239.653 94.08C239.653 91.92 240.146 90.0667 241.133 88.52C242.12 86.9467 243.4 85.7467 244.973 84.92C246.546 84.0933 248.213 83.68 249.973 83.68C252.026 83.68 253.746 84.1067 255.133 84.96C256.52 85.7867 257.56 86.92 258.253 88.36C258.973 89.7733 259.333 91.3867 259.333 93.2C259.333 93.7333 259.293 94.2533 259.213 94.76C259.16 95.24 259.106 95.6 259.053 95.84H244.013V91.88H255.093L254.173 93C254.173 91.4 253.826 90.2 253.133 89.4C252.466 88.5733 251.48 88.16 250.173 88.16C249.213 88.16 248.373 88.3733 247.653 88.8C246.933 89.2267 246.373 89.88 245.973 90.76C245.573 91.64 245.373 92.7467 245.373 94.08C245.373 95.44 245.613 96.56 246.093 97.44C246.573 98.2933 247.266 98.9333 248.173 99.36C249.08 99.7867 250.173 100 251.453 100C252.36 100 253.213 99.88 254.013 99.64C254.84 99.4 255.693 99.0533 256.573 98.6L258.533 102.16C257.386 102.88 256.12 103.453 254.733 103.88C253.346 104.28 251.986 104.48 250.653 104.48Z" fill="white"/>
<path d="M703.195 326L699.715 299.92H705.835L706.635 313.8C706.635 314.547 706.648 315.28 706.675 316C706.701 316.693 706.715 317.4 706.715 318.12C706.741 318.813 706.755 319.56 706.755 320.36H706.915C707.021 319.56 707.141 318.813 707.275 318.12C707.435 317.4 707.595 316.68 707.755 315.96C707.915 315.24 708.061 314.52 708.195 313.8L709.955 306.52H713.715L715.355 313.8C715.515 314.52 715.661 315.227 715.795 315.92C715.928 316.613 716.075 317.333 716.235 318.08C716.395 318.8 716.528 319.56 716.635 320.36H716.795C716.821 319.56 716.835 318.8 716.835 318.08C716.861 317.333 716.875 316.613 716.875 315.92C716.901 315.227 716.928 314.52 716.955 313.8L717.675 299.92H723.395L720.195 326H713.875L712.355 317.92C712.195 317.093 712.048 316.253 711.915 315.4C711.781 314.547 711.688 313.733 711.635 312.96H711.515C711.435 313.733 711.341 314.547 711.235 315.4C711.128 316.253 710.995 317.093 710.835 317.92L709.315 326H703.195ZM728.179 326V306.16H732.979L733.459 310.48H733.579C734.566 308.853 735.752 307.653 737.139 306.88C738.552 306.08 740.046 305.68 741.619 305.68C742.499 305.68 743.206 305.747 743.739 305.88C744.299 306.013 744.872 306.213 745.459 306.48L744.259 311.4C743.646 311.213 743.086 311.08 742.579 311C742.099 310.893 741.486 310.84 740.739 310.84C739.512 310.84 738.299 311.2 737.099 311.92C735.926 312.64 734.912 313.893 734.059 315.68V326H728.179ZM758.643 326V310.76H750.643V306.16H764.523V326H758.643ZM761.323 303.04C760.203 303.04 759.27 302.72 758.523 302.08C757.777 301.413 757.403 300.547 757.403 299.48C757.403 298.387 757.777 297.507 758.523 296.84C759.27 296.147 760.203 295.8 761.323 295.8C762.47 295.8 763.403 296.147 764.123 296.84C764.87 297.507 765.243 298.387 765.243 299.48C765.243 300.547 764.87 301.413 764.123 302.08C763.403 302.72 762.47 303.04 761.323 303.04ZM787.028 326.48C784.921 326.48 783.241 326.12 781.988 325.4C780.761 324.653 779.868 323.627 779.308 322.32C778.748 321.013 778.468 319.493 778.468 317.76V310.76H773.508V306.4L778.748 306.16L779.508 300.08H784.348V306.16H792.748V310.76H784.348V317.72C784.348 318.707 784.494 319.507 784.788 320.12C785.081 320.733 785.534 321.187 786.148 321.48C786.761 321.747 787.548 321.88 788.508 321.88C789.281 321.88 789.988 321.813 790.628 321.68C791.268 321.547 791.881 321.373 792.468 321.16L793.508 325.4C792.628 325.667 791.654 325.907 790.588 326.12C789.548 326.36 788.361 326.48 787.028 326.48ZM806.612 326V310.76H798.612V306.16H812.492V326H806.612ZM809.292 303.04C808.172 303.04 807.239 302.72 806.492 302.08C805.746 301.413 805.372 300.547 805.372 299.48C805.372 298.387 805.746 297.507 806.492 296.84C807.239 296.147 808.172 295.8 809.292 295.8C810.439 295.8 811.372 296.147 812.092 296.84C812.839 297.507 813.212 298.387 813.212 299.48C813.212 300.547 812.839 301.413 812.092 302.08C811.372 302.72 810.439 303.04 809.292 303.04ZM822.357 326V306.16H827.157L827.597 308.8H827.757C828.61 307.947 829.583 307.213 830.677 306.6C831.797 305.987 833.103 305.68 834.597 305.68C836.837 305.68 838.477 306.4 839.517 307.84C840.557 309.28 841.077 311.253 841.077 313.76V326H835.197V314.52C835.197 313.187 834.97 312.213 834.517 311.6C834.09 310.987 833.343 310.68 832.277 310.68C831.477 310.68 830.77 310.867 830.157 311.24C829.57 311.587 828.93 312.093 828.237 312.76V326H822.357ZM854.541 334.44C852.808 334.44 851.261 334.253 849.901 333.88C848.568 333.533 847.501 332.987 846.701 332.24C845.928 331.493 845.541 330.533 845.541 329.36C845.541 328.56 845.794 327.827 846.301 327.16C846.834 326.493 847.608 325.907 848.621 325.4V325.24C848.061 324.867 847.581 324.413 847.181 323.88C846.808 323.347 846.621 322.667 846.621 321.84C846.621 321.173 846.834 320.507 847.261 319.84C847.714 319.173 848.288 318.6 848.981 318.12V317.96C848.261 317.48 847.648 316.8 847.141 315.92C846.634 315.04 846.381 314.027 846.381 312.88C846.381 311.28 846.768 309.947 847.541 308.88C848.341 307.813 849.381 307.013 850.661 306.48C851.968 305.947 853.368 305.68 854.861 305.68C856.088 305.68 857.181 305.84 858.141 306.16H866.181V310.48H862.181C862.421 310.773 862.621 311.16 862.781 311.64C862.968 312.093 863.061 312.573 863.061 313.08C863.061 314.6 862.688 315.853 861.941 316.84C861.221 317.8 860.248 318.52 859.021 319C857.794 319.48 856.408 319.72 854.861 319.72C854.488 319.72 854.061 319.693 853.581 319.64C853.101 319.56 852.621 319.453 852.141 319.32C851.821 319.533 851.594 319.747 851.461 319.96C851.328 320.173 851.261 320.453 851.261 320.8C851.261 321.307 851.528 321.68 852.061 321.92C852.621 322.16 853.474 322.28 854.621 322.28H858.301C860.914 322.28 862.901 322.667 864.261 323.44C865.648 324.213 866.341 325.493 866.341 327.28C866.341 328.667 865.861 329.893 864.901 330.96C863.941 332.053 862.568 332.907 860.781 333.52C859.021 334.133 856.941 334.44 854.541 334.44ZM854.861 316.16C855.421 316.16 855.928 316.04 856.381 315.8C856.834 315.56 857.194 315.2 857.461 314.72C857.728 314.213 857.861 313.6 857.861 312.88C857.861 312.187 857.728 311.6 857.461 311.12C857.194 310.64 856.834 310.28 856.381 310.04C855.928 309.773 855.421 309.64 854.861 309.64C854.328 309.64 853.834 309.773 853.381 310.04C852.928 310.28 852.568 310.64 852.301 311.12C852.034 311.6 851.901 312.187 851.901 312.88C851.901 313.6 852.034 314.213 852.301 314.72C852.568 315.2 852.928 315.56 853.381 315.8C853.834 316.04 854.328 316.16 854.861 316.16ZM855.381 330.72C856.448 330.72 857.381 330.613 858.181 330.4C858.981 330.187 859.608 329.893 860.061 329.52C860.514 329.173 860.741 328.773 860.741 328.32C860.741 327.653 860.448 327.227 859.861 327.04C859.274 326.88 858.408 326.8 857.261 326.8H854.781C854.061 326.8 853.461 326.773 852.981 326.72C852.528 326.667 852.114 326.6 851.741 326.52C851.234 326.84 850.874 327.147 850.661 327.44C850.448 327.76 850.341 328.107 850.341 328.48C850.341 329.2 850.794 329.747 851.701 330.12C852.608 330.52 853.834 330.72 855.381 330.72Z" fill="white"/>
<path d="M167.347 656V629.92H174.547C177.08 629.92 179.28 630.373 181.147 631.28C183.04 632.187 184.507 633.6 185.547 635.52C186.587 637.413 187.107 639.853 187.107 642.84C187.107 645.827 186.587 648.293 185.547 650.24C184.534 652.187 183.107 653.64 181.267 654.6C179.427 655.533 177.307 656 174.907 656H167.347ZM173.267 651.24H174.227C175.614 651.24 176.814 650.973 177.827 650.44C178.84 649.907 179.627 649.027 180.187 647.8C180.774 646.573 181.067 644.92 181.067 642.84C181.067 640.76 180.774 639.133 180.187 637.96C179.627 636.76 178.84 635.92 177.827 635.44C176.814 634.933 175.614 634.68 174.227 634.68H173.267V651.24ZM201.731 656.48C199.678 656.48 197.811 656.08 196.131 655.28C194.478 654.453 193.158 653.267 192.171 651.72C191.211 650.147 190.731 648.267 190.731 646.08C190.731 643.92 191.225 642.067 192.211 640.52C193.198 638.947 194.478 637.747 196.051 636.92C197.625 636.093 199.291 635.68 201.051 635.68C203.105 635.68 204.825 636.107 206.211 636.96C207.598 637.787 208.638 638.92 209.331 640.36C210.051 641.773 210.411 643.387 210.411 645.2C210.411 645.733 210.371 646.253 210.291 646.76C210.238 647.24 210.185 647.6 210.131 647.84H195.091V643.88H206.171L205.251 645C205.251 643.4 204.905 642.2 204.211 641.4C203.545 640.573 202.558 640.16 201.251 640.16C200.291 640.16 199.451 640.373 198.731 640.8C198.011 641.227 197.451 641.88 197.051 642.76C196.651 643.64 196.451 644.747 196.451 646.08C196.451 647.44 196.691 648.56 197.171 649.44C197.651 650.293 198.345 650.933 199.251 651.36C200.158 651.787 201.251 652 202.531 652C203.438 652 204.291 651.88 205.091 651.64C205.918 651.4 206.771 651.053 207.651 650.6L209.611 654.16C208.465 654.88 207.198 655.453 205.811 655.88C204.425 656.28 203.065 656.48 201.731 656.48ZM224.356 656.48C222.596 656.48 220.849 656.187 219.116 655.6C217.382 654.987 215.889 654.267 214.636 653.44L217.156 649.76C218.356 650.533 219.622 651.12 220.956 651.52C222.316 651.92 223.716 652.12 225.156 652.12C226.249 652.12 227.049 651.96 227.556 651.64C228.062 651.293 228.316 650.893 228.316 650.44C228.316 650.147 228.236 649.907 228.076 649.72C227.942 649.507 227.689 649.32 227.316 649.16C226.969 648.973 226.476 648.8 225.836 648.64C225.222 648.48 224.422 648.293 223.436 648.08C220.742 647.493 218.809 646.693 217.636 645.68C216.462 644.667 215.876 643.4 215.876 641.88C215.876 640.013 216.689 638.52 218.316 637.4C219.942 636.253 222.169 635.68 224.996 635.68C226.782 635.68 228.396 635.973 229.836 636.56C231.302 637.12 232.556 637.733 233.596 638.4L230.956 641.92C229.969 641.307 228.916 640.84 227.796 640.52C226.676 640.2 225.569 640.04 224.476 640.04C223.862 640.04 223.356 640.107 222.956 640.24C222.556 640.347 222.249 640.533 222.036 640.8C221.822 641.04 221.716 641.307 221.716 641.6C221.716 642.133 222.062 642.533 222.756 642.8C223.449 643.04 224.636 643.347 226.316 643.72C228.342 644.173 229.929 644.693 231.076 645.28C232.222 645.867 233.009 646.547 233.436 647.32C233.889 648.067 234.116 648.987 234.116 650.08C234.116 651.28 233.742 652.36 232.996 653.32C232.276 654.28 231.182 655.053 229.716 655.64C228.276 656.2 226.489 656.48 224.356 656.48ZM247.62 656V640.76H239.62V636.16H253.5V656H247.62ZM250.3 633.04C249.18 633.04 248.247 632.72 247.5 632.08C246.753 631.413 246.38 630.547 246.38 629.48C246.38 628.387 246.753 627.507 247.5 626.84C248.247 626.147 249.18 625.8 250.3 625.8C251.447 625.8 252.38 626.147 253.1 626.84C253.847 627.507 254.22 628.387 254.22 629.48C254.22 630.547 253.847 631.413 253.1 632.08C252.38 632.72 251.447 633.04 250.3 633.04ZM271.564 664.44C269.831 664.44 268.284 664.253 266.924 663.88C265.591 663.533 264.524 662.987 263.724 662.24C262.951 661.493 262.564 660.533 262.564 659.36C262.564 658.56 262.818 657.827 263.324 657.16C263.858 656.493 264.631 655.907 265.644 655.4V655.24C265.084 654.867 264.604 654.413 264.204 653.88C263.831 653.347 263.644 652.667 263.644 651.84C263.644 651.173 263.858 650.507 264.284 649.84C264.738 649.173 265.311 648.6 266.004 648.12V647.96C265.284 647.48 264.671 646.8 264.164 645.92C263.658 645.04 263.404 644.027 263.404 642.88C263.404 641.28 263.791 639.947 264.564 638.88C265.364 637.813 266.404 637.013 267.684 636.48C268.991 635.947 270.391 635.68 271.884 635.68C273.111 635.68 274.204 635.84 275.164 636.16H283.204V640.48H279.204C279.444 640.773 279.644 641.16 279.804 641.64C279.991 642.093 280.084 642.573 280.084 643.08C280.084 644.6 279.711 645.853 278.964 646.84C278.244 647.8 277.271 648.52 276.044 649C274.818 649.48 273.431 649.72 271.884 649.72C271.511 649.72 271.084 649.693 270.604 649.64C270.124 649.56 269.644 649.453 269.164 649.32C268.844 649.533 268.618 649.747 268.484 649.96C268.351 650.173 268.284 650.453 268.284 650.8C268.284 651.307 268.551 651.68 269.084 651.92C269.644 652.16 270.498 652.28 271.644 652.28H275.324C277.938 652.28 279.924 652.667 281.284 653.44C282.671 654.213 283.364 655.493 283.364 657.28C283.364 658.667 282.884 659.893 281.924 660.96C280.964 662.053 279.591 662.907 277.804 663.52C276.044 664.133 273.964 664.44 271.564 664.44ZM271.884 646.16C272.444 646.16 272.951 646.04 273.404 645.8C273.858 645.56 274.218 645.2 274.484 644.72C274.751 644.213 274.884 643.6 274.884 642.88C274.884 642.187 274.751 641.6 274.484 641.12C274.218 640.64 273.858 640.28 273.404 640.04C272.951 639.773 272.444 639.64 271.884 639.64C271.351 639.64 270.858 639.773 270.404 640.04C269.951 640.28 269.591 640.64 269.324 641.12C269.058 641.6 268.924 642.187 268.924 642.88C268.924 643.6 269.058 644.213 269.324 644.72C269.591 645.2 269.951 645.56 270.404 645.8C270.858 646.04 271.351 646.16 271.884 646.16ZM272.404 660.72C273.471 660.72 274.404 660.613 275.204 660.4C276.004 660.187 276.631 659.893 277.084 659.52C277.538 659.173 277.764 658.773 277.764 658.32C277.764 657.653 277.471 657.227 276.884 657.04C276.298 656.88 275.431 656.8 274.284 656.8H271.804C271.084 656.8 270.484 656.773 270.004 656.72C269.551 656.667 269.138 656.6 268.764 656.52C268.258 656.84 267.898 657.147 267.684 657.44C267.471 657.76 267.364 658.107 267.364 658.48C267.364 659.2 267.818 659.747 268.724 660.12C269.631 660.52 270.858 660.72 272.404 660.72ZM287.349 656V636.16H292.149L292.589 638.8H292.749C293.602 637.947 294.575 637.213 295.669 636.6C296.789 635.987 298.095 635.68 299.589 635.68C301.829 635.68 303.469 636.4 304.509 637.84C305.549 639.28 306.069 641.253 306.069 643.76V656H300.189V644.52C300.189 643.187 299.962 642.213 299.509 641.6C299.082 640.987 298.335 640.68 297.269 640.68C296.469 640.68 295.762 640.867 295.149 641.24C294.562 641.587 293.922 642.093 293.229 642.76V656H287.349Z" fill="white"/>
<defs>
<filter id="filter0_d_103_45" x="187" y="0.203033" width="572" height="692.797" filterUnits="userSpaceOnUse" color-interpolation-filters="sRGB">
<feFlood flood-opacity="0" result="BackgroundImageFix"/>
<feColorMatrix in="SourceAlpha" type="matrix" values="0 0 0 0 0 0 0 0 0 0 0 0 0 0 0 0 0 0 127 0" result="hardAlpha"/>
<feOffset dy="4"/>
<feGaussianBlur stdDeviation="2"/>
<feComposite in2="hardAlpha" operator="out"/>
<feColorMatrix type="matrix" values="0 0 0 0 0 0 0 0 0 0 0 0 0 0 0 0 0 0 0.5 0"/>
<feBlend mode="normal" in2="BackgroundImageFix" result="effect1_dropShadow_103_45"/>
<feBlend mode="normal" in="SourceGraphic" in2="effect1_dropShadow_103_45" result="shape"/>
</filter>
<filter id="filter1_d_103_45" x="617" y="260" width="332" height="114" filterUnits="userSpaceOnUse" color-interpolation-filters="sRGB">
<feFlood flood-opacity="0" result="BackgroundImageFix"/>
<feColorMatrix in="SourceAlpha" type="matrix" values="0 0 0 0 0 0 0 0 0 0 0 0 0 0 0 0 0 0 127 0" result="hardAlpha"/>
<feOffset dy="4"/>
<feGaussianBlur stdDeviation="2"/>
<feComposite in2="hardAlpha" operator="out"/>
<feColorMatrix type="matrix" values="0 0 0 0 0 0 0 0 0 0 0 0 0 0 0 0 0 0 0.5 0"/>
<feBlend mode="normal" in2="BackgroundImageFix" result="effect1_dropShadow_103_45"/>
<feBlend mode="normal" in="SourceGraphic" in2="effect1_dropShadow_103_45" result="shape"/>
</filter>
<filter id="filter2_d_103_45" x="73" y="588" width="332" height="114" filterUnits="userSpaceOnUse" color-interpolation-filters="sRGB">
<feFlood flood-opacity="0" result="BackgroundImageFix"/>
<feColorMatrix in="SourceAlpha" type="matrix" values="0 0 0 0 0 0 0 0 0 0 0 0 0 0 0 0 0 0 127 0" result="hardAlpha"/>
<feOffset dy="4"/>
<feGaussianBlur stdDeviation="2"/>
<feComposite in2="hardAlpha" operator="out"/>
<feColorMatrix type="matrix" values="0 0 0 0 0 0 0 0 0 0 0 0 0 0 0 0 0 0 0.5 0"/>
<feBlend mode="normal" in2="BackgroundImageFix" result="effect1_dropShadow_103_45"/>
<feBlend mode="normal" in="SourceGraphic" in2="effect1_dropShadow_103_45" result="shape"/>
</filter>
<filter id="filter3_d_103_45" x="0" y="38" width="332" height="114" filterUnits="userSpaceOnUse" color-interpolation-filters="sRGB">
<feFlood flood-opacity="0" result="BackgroundImageFix"/>
<feColorMatrix in="SourceAlpha" type="matrix" values="0 0 0 0 0 0 0 0 0 0 0 0 0 0 0 0 0 0 127 0" result="hardAlpha"/>
<feOffset dy="4"/>
<feGaussianBlur stdDeviation="2"/>
<feComposite in2="hardAlpha" operator="out"/>
<feColorMatrix type="matrix" values="0 0 0 0 0 0 0 0 0 0 0 0 0 0 0 0 0 0 0.5 0"/>
<feBlend mode="normal" in2="BackgroundImageFix" result="effect1_dropShadow_103_45"/>
<feBlend mode="normal" in="SourceGraphic" in2="effect1_dropShadow_103_45" result="shape"/>
</filter>
</defs>
</svg>
